<?xml version="1.0" encoding="utf-8"?>
<!-- Generator: Adobe Illustrator 16.0.0, SVG Export Plug-In . SVG Version: 6.00 Build 0)  -->
<!DOCTYPE svg PUBLIC "-//W3C//DTD SVG 1.1//EN" "http://www.w3.org/Graphics/SVG/1.1/DTD/svg11.dtd">
<svg version="1.1" id="Layer_1" xmlns="http://www.w3.org/2000/svg" xmlns:xlink="http://www.w3.org/1999/xlink" x="0px" y="0px"
	 width="477.014px" height="477.014px" viewBox="-31.524 -146.805 477.014 477.014"
	 enable-background="new -31.524 -146.805 477.014 477.014" xml:space="preserve">
<g>
	<g>
		<path d="M0,71.187V1.155h14.91v70.032H0z"/>
		<path d="M34.019,71.187V1.155h32.759c15.225,0,23.52,10.29,23.52,22.574c0,12.18-8.4,22.469-23.52,22.469h-17.85v24.989H34.019z
			 M75.072,23.729c0-5.88-4.515-9.45-10.395-9.45H48.928v18.794h15.749C70.557,33.074,75.072,29.504,75.072,23.729z"/>
		<path d="M104.894,71.187V1.155h49.559V14.28h-34.648v14.699h33.914v13.125h-33.914v29.084L104.894,71.187L104.894,71.187z"/>
		<path d="M165.269,61.317l8.189-11.654c4.935,5.146,12.6,9.554,22.259,9.554c8.294,0,12.179-3.675,12.179-7.77
			c0-12.18-40.317-3.675-40.317-30.029c0-11.653,10.08-21.313,26.563-21.313c11.13,0,20.369,3.359,27.299,9.765l-8.294,11.129
			c-5.67-5.25-13.229-7.665-20.369-7.665c-6.3,0-9.869,2.73-9.869,6.931c0,11.023,40.213,3.569,40.213,29.714
			c0,12.81-9.24,22.469-28.034,22.469C181.543,72.447,171.884,67.932,165.269,61.317z"/>
		<path d="M0,160.498l5.25-6.72c4.516,5.25,12.074,10.079,21.944,10.079c12.494,0,16.483-6.72,16.483-12.18
			c0-18.059-41.473-7.979-41.473-32.968c0-11.55,10.289-19.529,24.149-19.529c10.604,0,18.898,3.675,24.778,9.87l-5.25,6.405
			c-5.25-5.88-12.6-8.4-20.264-8.4c-8.295,0-14.384,4.516-14.384,11.129c0,15.75,41.473,6.721,41.473,32.864
			c0,10.08-6.93,20.579-25.829,20.579C14.804,171.628,5.775,167.009,0,160.498z"/>
		<path d="M70.979,170.368v-70.032h45.884v7.77H79.694v22.574h36.434v7.771H79.694v24.148h37.169v7.771L70.979,170.368
			L70.979,170.368z"/>
		<path d="M185.951,170.368l-6.195-15.646h-34.857l-6.194,15.646h-9.976l28.243-70.032h10.814l28.14,70.032H185.951z
			 M162.327,109.26l-14.806,37.798h29.715L162.327,109.26z"/>
		<path d="M250.84,170.368l-17.744-27.824h-14.068v27.824h-8.716v-70.032h28.14c12.81,0,22.05,8.189,22.05,21.104
			c0,12.601-8.715,19.529-18.27,20.37l18.898,28.56L250.84,170.368L250.84,170.368z M251.47,121.439
			c0-7.979-5.773-13.334-14.068-13.334h-18.374v26.774h18.374C245.696,134.879,251.47,129.314,251.47,121.439z"/>
		<path d="M276.671,135.405c0-21.525,15.854-36.225,36.014-36.225c12.391,0,20.999,5.88,26.564,13.859l-7.245,4.095
			c-3.99-5.985-11.34-10.185-19.319-10.185c-15.329,0-26.982,11.654-26.982,28.454c0,16.589,11.653,28.453,26.982,28.453
			c7.979,0,15.329-4.305,19.319-10.185l7.35,3.99c-5.88,8.084-14.278,13.964-26.669,13.964
			C292.526,171.628,276.671,156.928,276.671,135.405z"/>
		<path d="M405.399,170.368v-32.129H364.45v32.129h-8.715v-70.032h8.715v30.134h40.948v-30.134h8.715v70.032H405.399z"/>
	</g>
</g>
</svg>
