<?xml version="1.0" encoding="utf-8"?>
<!-- Generator: Adobe Illustrator 21.0.0, SVG Export Plug-In . SVG Version: 6.00 Build 0)  -->
<svg version="1.1" id="Laag_1" xmlns="http://www.w3.org/2000/svg" xmlns:xlink="http://www.w3.org/1999/xlink" x="0px" y="0px"
	 viewBox="0 0 1400 768" style="enable-background:new 0 0 1400 768;" xml:space="preserve">
<style type="text/css">
	.st0{fill:#231F20;}
</style>
<g>
	<g>
		<path class="st0" d="M17.1,381.7V241.6h29.8v140.1H17.1z"/>
		<path class="st0" d="M85.1,381.7V241.6h65.5c30.5,0,47,20.6,47,45.2c0,24.4-16.8,44.9-47,44.9H115v50H85.1z M167.2,286.8
			c0-11.8-9-18.9-20.8-18.9H115v37.6h31.5C158.2,305.4,167.2,298.3,167.2,286.8z"/>
		<path class="st0" d="M226.9,381.7V241.6H326v26.3h-69.3v29.4h67.8v26.3h-67.8v58.2H226.9z"/>
		<path class="st0" d="M347.6,361.9l16.4-23.3c9.9,10.3,25.2,19.1,44.5,19.1c16.6,0,24.4-7.4,24.4-15.5c0-24.4-80.6-7.4-80.6-60.1
			c0-23.3,20.2-42.6,53.1-42.6c22.3,0,40.7,6.7,54.6,19.5l-16.6,22.3c-11.3-10.5-26.5-15.3-40.7-15.3c-12.6,0-19.7,5.5-19.7,13.9
			c0,22.1,80.4,7.1,80.4,59.4c0,25.6-18.5,44.9-56.1,44.9C380.2,384.2,360.9,375.2,347.6,361.9z"/>
		<path class="st0" d="M552.8,361.9l10.5-13.4c9,10.5,24.2,20.2,43.9,20.2c25,0,33-13.4,33-24.4c0-36.1-83-16-83-65.9
			c0-23.1,20.6-39.1,48.3-39.1c21.2,0,37.8,7.4,49.6,19.7l-10.5,12.8C634.1,260.1,619.4,255,604,255c-16.6,0-28.8,9-28.8,22.3
			c0,31.5,83,13.4,83,65.7c0,20.2-13.9,41.2-51.7,41.2C582.4,384.2,564.3,375,552.8,361.9z"/>
		<path class="st0" d="M694.8,381.7V241.6h91.8v15.5h-74.3v45.2h72.9v15.5h-72.9v48.3h74.3v15.5H694.8z"/>
		<path class="st0" d="M924.7,381.7l-12.4-31.3h-69.7l-12.4,31.3h-20l56.5-140.1h21.6l56.3,140.1H924.7z M877.5,259.5l-29.6,75.6
			h59.4L877.5,259.5z"/>
		<path class="st0" d="M1054.5,381.7L1019,326h-28.1v55.7h-17.4V241.6h56.3c25.6,0,44.1,16.4,44.1,42.2c0,25.2-17.4,39.1-36.5,40.7
			l37.8,57.1H1054.5z M1055.7,283.8c0-16-11.6-26.7-28.1-26.7h-36.8v53.6h36.8C1044.2,310.7,1055.7,299.6,1055.7,283.8z"/>
		<path class="st0" d="M1106.1,311.7c0-43.1,31.7-72.5,72-72.5c24.8,0,42,11.8,53.1,27.7l-14.5,8.2c-8-12-22.7-20.4-38.6-20.4
			c-30.7,0-54,23.3-54,56.9c0,33.2,23.3,56.9,54,56.9c16,0,30.7-8.6,38.6-20.4l14.7,8c-11.8,16.2-28.6,27.9-53.3,27.9
			C1137.9,384.2,1106.1,354.8,1106.1,311.7z"/>
		<path class="st0" d="M1363.6,381.7v-64.3h-81.9v64.3h-17.4V241.6h17.4v60.3h81.9v-60.3h17.4v140.1H1363.6z"/>
		<path class="st0" d="M17.2,483.4l3.4-4c4,4.5,10.4,8.9,19.2,8.9c12.5,0,16.1-7,16.1-12.2c0-18-36.8-8.6-36.8-30.1
			c0-10,9-16.4,20.1-16.4c9.1,0,16.1,3.2,20.8,8.6l-3.5,3.9c-4.4-5.3-10.7-7.7-17.6-7.7c-8.2,0-14.4,4.7-14.4,11.3
			c0,15.7,36.8,7.1,36.8,30c0,7.9-5.2,17.4-21.8,17.4C29.5,493.2,21.9,489,17.2,483.4z"/>
		<path class="st0" d="M71.4,469.8c0-12.9,9-23.3,21.3-23.3c13.5,0,21,10.7,21,23.6v1.3H76.5C77,481,83.4,489,93.9,489
			c5.6,0,10.8-2.1,14.5-6.2l2.5,3.1c-4.4,4.6-10,7.2-17.4,7.2C80.6,493.2,71.4,483.5,71.4,469.8z M92.6,450.7
			c-10.5,0-15.7,9.2-16.1,16.9h32.3C108.7,460.1,103.8,450.7,92.6,450.7z"/>
		<path class="st0" d="M154.3,492.1v-5.2c-4,4.3-8.9,6.3-15.1,6.3c-7.6,0-15.5-5.2-15.5-14.8c0-9.7,7.8-14.7,15.5-14.7
			c6.2,0,11.2,2,15.1,6.3v-9c0-6.6-5.3-10.2-11.9-10.2c-5.6,0-9.9,1.9-14,6.5l-2.7-3.3c4.6-5,9.8-7.5,17.1-7.5
			c9,0,16.2,4.3,16.2,14.3v31.3H154.3z M154.3,483.3v-9.8c-3.1-4.1-8.1-6.2-13.4-6.2c-7.3,0-12.1,4.7-12.1,11
			c0,6.3,4.9,10.9,12.1,10.9C146.2,489.4,151.1,487.4,154.3,483.3z"/>
		<path class="st0" d="M174,492.1v-44.4h4.8v7.6c3.8-5,8.8-8.6,15-8.6v5.2c-0.8-0.2-1.5-0.2-2.4-0.2c-4.5,0-10.6,4-12.6,7.9v32.4
			H174z"/>
		<path class="st0" d="M200.6,469.8c0-13,8.5-23.3,21.5-23.3c7.7,0,12.1,3,15.7,7.5l-3.3,2.9c-3.2-4.4-7.3-6.2-12.1-6.2
			c-10.4,0-16.7,8.3-16.7,19c0,10.7,6.3,19,16.7,19c4.9,0,8.9-1.8,12.1-6.3l3.3,2.9c-3.6,4.6-8,7.6-15.7,7.6
			C209.1,493.2,200.6,482.8,200.6,469.8z"/>
		<path class="st0" d="M278.6,492.1v-30.3c0-8.6-4.3-10.9-10.8-10.9c-5.7,0-11.6,3.6-14.4,7.6v33.6h-4.8v-61.4h4.8v23.6
			c3.2-3.9,9.6-7.8,16-7.8c9,0,14,4.2,14,14.3v31.3H278.6z"/>
		<path class="st0" d="M297,437c0-2,1.7-3.6,3.7-3.6c2,0,3.7,1.6,3.7,3.6c0,2-1.7,3.7-3.7,3.7C298.7,440.7,297,439,297,437z
			 M298.2,492.1v-44.4h4.8v44.4H298.2z"/>
		<path class="st0" d="M347.9,492.1V462c0-8.6-4.3-11.1-10.8-11.1c-5.7,0-11.6,3.6-14.4,7.6v33.6h-4.8v-44.4h4.8v6.7
			c3.2-3.9,9.6-7.8,16-7.8c9,0,14,4.4,14,14.4v31.1H347.9z"/>
		<path class="st0" d="M367.7,503.4l2.8-3.9c3.9,4.6,8.1,6.3,14.8,6.3c8,0,15.1-4,15.1-14.1v-7.1c-3.1,4.6-8.8,8.4-15.5,8.4
			c-11.8,0-19.8-8.9-19.8-23.2c0-14.1,8-23.3,19.8-23.3c6.3,0,11.9,3.2,15.5,8.3v-7.2h4.9v44.1c0,13.5-9.2,18.4-20,18.4
			C377.7,510.1,372.9,508.7,367.7,503.4z M400.4,480.6V459c-2.6-4.3-8.5-8.1-14.6-8.1c-9.8,0-15.5,8.2-15.5,19s5.7,18.9,15.5,18.9
			C391.9,488.7,397.8,484.9,400.4,480.6z"/>
		<path class="st0" d="M444.8,483.5v-31.6h-7.4v-4.2h7.4v-12.1h4.9v12.1h9v4.2h-9v30.9c0,3.6,1.5,6.1,4.6,6.1c2.1,0,4-1,5-2.1
			l1.8,3.7c-1.7,1.7-3.9,2.8-7.5,2.8C447.6,493.2,444.8,489.6,444.8,483.5z"/>
		<path class="st0" d="M499.2,492.1v-30.3c0-8.6-4.3-10.9-10.8-10.9c-5.7,0-11.6,3.6-14.4,7.6v33.6h-4.8v-61.4h4.8v23.6
			c3.2-3.9,9.6-7.8,16-7.8c9,0,14,4.2,14,14.3v31.3H499.2z"/>
		<path class="st0" d="M516.4,469.8c0-12.9,9-23.3,21.3-23.3c13.5,0,21,10.7,21,23.6v1.3h-37.2c0.5,9.7,6.9,17.7,17.4,17.7
			c5.6,0,10.8-2.1,14.5-6.2l2.5,3.1c-4.4,4.6-10,7.2-17.4,7.2C525.6,493.2,516.4,483.5,516.4,469.8z M537.6,450.7
			c-10.5,0-15.7,9.2-16.1,16.9h32.3C553.7,460.1,548.8,450.7,537.6,450.7z"/>
		<path class="st0" d="M595,468.5v-37.8h5.3v37.7c0,12.4,6.5,20,18.6,20c12.1,0,18.6-7.5,18.6-20v-37.7h5.3v37.8
			c0,15.2-8.1,24.7-23.9,24.7C603.2,493.2,595,483.6,595,468.5z"/>
		<path class="st0" d="M687.9,492.1V462c0-8.6-4.3-11.1-10.8-11.1c-5.7,0-11.6,3.6-14.4,7.6v33.6H658v-44.4h4.8v6.7
			c3.2-3.9,9.6-7.8,16-7.8c9,0,14,4.4,14,14.4v31.1H687.9z"/>
		<path class="st0" d="M706.3,437c0-2,1.7-3.6,3.7-3.6c2,0,3.7,1.6,3.7,3.6c0,2-1.7,3.7-3.7,3.7C708.1,440.7,706.3,439,706.3,437z
			 M707.6,492.1v-44.4h4.8v44.4H707.6z"/>
		<path class="st0" d="M739.3,492.1l-18.8-44.4h5.3l16.2,38.8l16-38.8h5.4l-18.8,44.4H739.3z"/>
		<path class="st0" d="M769.1,469.8c0-12.9,9-23.3,21.3-23.3c13.5,0,21,10.7,21,23.6v1.3h-37.2c0.5,9.7,6.9,17.7,17.4,17.7
			c5.6,0,10.8-2.1,14.5-6.2l2.5,3.1c-4.4,4.6-10,7.2-17.4,7.2C778.3,493.2,769.1,483.5,769.1,469.8z M790.3,450.7
			c-10.5,0-15.7,9.2-16.1,16.9h32.3C806.4,460.1,801.5,450.7,790.3,450.7z"/>
		<path class="st0" d="M823.7,492.1v-44.4h4.8v7.6c3.8-5,8.8-8.6,15-8.6v5.2c-0.8-0.2-1.5-0.2-2.4-0.2c-4.5,0-10.6,4-12.6,7.9v32.4
			H823.7z"/>
		<path class="st0" d="M849,486.1l2.9-3.5c2.9,3.6,8.1,6.5,14.4,6.5c7.5,0,11.9-3.9,11.9-9c0-12.1-28.1-5.2-28.1-21.3
			c0-6.8,5.8-12.3,15.8-12.3c7.6,0,12.7,2.9,15.9,6.5l-2.7,3.4c-2.6-3.5-7.4-5.9-13.2-5.9c-6.9,0-11,3.5-11,8.1
			c0,11.1,28,4.3,28,21.4c0,7.2-5.5,13.1-16.7,13.1C859,493.2,853.5,491.1,849,486.1z"/>
		<path class="st0" d="M892.6,469.8c0-12.9,9-23.3,21.3-23.3c13.5,0,21,10.7,21,23.6v1.3h-37.2c0.5,9.7,6.9,17.7,17.4,17.7
			c5.6,0,10.8-2.1,14.5-6.2l2.5,3.1c-4.4,4.6-10,7.2-17.4,7.2C901.8,493.2,892.6,483.5,892.6,469.8z M913.9,450.7
			c-10.5,0-15.7,9.2-16.1,16.9h32.3C930,460.1,925,450.7,913.9,450.7z"/>
		<path class="st0" d="M967.3,486.1l2.9-3.5c2.9,3.6,8.1,6.5,14.4,6.5c7.5,0,11.9-3.9,11.9-9c0-12.1-28.1-5.2-28.1-21.3
			c0-6.8,5.8-12.3,15.8-12.3c7.6,0,12.7,2.9,15.9,6.5l-2.7,3.4c-2.6-3.5-7.4-5.9-13.2-5.9c-6.9,0-11,3.5-11,8.1
			c0,11.1,28,4.3,28,21.4c0,7.2-5.5,13.1-16.7,13.1C977.2,493.2,971.7,491.1,967.3,486.1z"/>
		<path class="st0" d="M1012.1,437c0-2,1.7-3.6,3.7-3.6c2,0,3.7,1.6,3.7,3.6c0,2-1.7,3.7-3.7,3.7
			C1013.8,440.7,1012.1,439,1012.1,437z M1013.3,492.1v-44.4h4.8v44.4H1013.3z"/>
		<path class="st0" d="M1063,492.1V462c0-8.6-4.3-11.1-10.8-11.1c-5.7,0-11.6,3.6-14.4,7.6v33.6h-4.8v-44.4h4.8v6.7
			c3.2-3.9,9.6-7.8,16-7.8c9,0,14,4.4,14,14.4v31.1H1063z"/>
		<path class="st0" d="M1080.2,469.8c0-13,8.5-23.3,21.5-23.3c7.7,0,12.1,3,15.7,7.5l-3.3,2.9c-3.2-4.4-7.3-6.2-12.1-6.2
			c-10.4,0-16.7,8.3-16.7,19c0,10.7,6.3,19,16.7,19c4.9,0,8.9-1.8,12.1-6.3l3.3,2.9c-3.6,4.6-8,7.6-15.7,7.6
			C1088.7,493.2,1080.2,482.8,1080.2,469.8z"/>
		<path class="st0" d="M1125.7,469.8c0-12.9,9-23.3,21.3-23.3c13.5,0,21,10.7,21,23.6v1.3h-37.2c0.5,9.7,6.9,17.7,17.4,17.7
			c5.6,0,10.8-2.1,14.5-6.2l2.5,3.1c-4.4,4.6-10,7.2-17.4,7.2C1134.9,493.2,1125.7,483.5,1125.7,469.8z M1146.9,450.7
			c-10.5,0-15.7,9.2-16.1,16.9h32.3C1163,460.1,1158.1,450.7,1146.9,450.7z"/>
		<path class="st0" d="M1202.6,492.1v-4.4c22.5-9.9,33.9-20.3,33.9-30.3c0-7.3-6.3-12.2-13.9-12.2c-7.5,0-14.1,3.2-17.5,8l-3.6-3.3
			c4.2-5.9,12.5-9.5,21.2-9.5c10.4,0,19,6.3,19,16.5c0,11.8-12.5,23.2-29.1,30.5h28.2v4.8H1202.6z"/>
		<path class="st0" d="M1277.7,493.2c-16,0-22.7-13.5-22.7-26.4c0-13,6.7-26.4,22.7-26.4c15.8,0,22.6,13.4,22.6,26.4
			C1300.4,479.7,1293.6,493.2,1277.7,493.2z M1277.7,445.2c-12.4,0-17.2,10.9-17.2,21.6c0,10.7,4.8,21.6,17.2,21.6
			c12.2,0,17-10.9,17-21.6C1294.8,456.1,1290.1,445.2,1277.7,445.2z"/>
		<path class="st0" d="M1321.1,492.1v-43.4l-9.8,10.5l-3.2-3.4l13.5-14.3h4.8v50.6H1321.1z"/>
		<path class="st0" d="M1339.3,461.4c0-15.7,6.6-31.6,23.5-31.6c8,0,12.9,3.2,16.6,7.8l-3,3.8c-3-4-6.8-6.8-13.5-6.8
			c-13.2,0-18.1,13.9-18.1,27c0,0.9,0,1.9,0.1,2.9c2.6-4.2,9.7-10.2,17.9-10.2c11,0,19.8,6.3,19.8,19.4c0,10-7.5,19.6-20.6,19.6
			C1345.3,493.2,1339.3,477.9,1339.3,461.4z M1377.1,473.7c0-10-6.5-14.8-15.4-14.8c-6.7,0-13.2,4.3-16.7,10.5
			c0.7,8.4,5.2,19,16.7,19C1372.1,488.4,1377.1,480.3,1377.1,473.7z"/>
	</g>
</g>
</svg>
