<?xml version="1.0" encoding="utf-8"?>
<!-- Generator: Adobe Illustrator 16.0.0, SVG Export Plug-In . SVG Version: 6.00 Build 0)  -->
<!DOCTYPE svg PUBLIC "-//W3C//DTD SVG 1.1 Tiny//EN" "http://www.w3.org/Graphics/SVG/1.1/DTD/svg11-tiny.dtd">
<svg version="1.1" baseProfile="tiny" id="Laag_1" xmlns="http://www.w3.org/2000/svg" xmlns:xlink="http://www.w3.org/1999/xlink"
	 x="0px" y="0px" width="580.61px" height="115.187px" viewBox="7.271 359.376 580.61 115.187" xml:space="preserve">
<g>
	<g>
		<path fill="#231F20" d="M7.271,419.967v-59.571h12.671v59.571H7.271z"/>
		<path fill="#231F20" d="M36.185,419.967v-59.571h27.851c12.969,0,19.984,8.759,19.984,19.219c0,10.375-7.144,19.091-19.984,19.091
			H48.898v21.26H36.185z M71.093,379.616c0-5.018-3.826-8.037-8.844-8.037H48.898v15.988h13.395
			C67.267,387.524,71.093,384.505,71.093,379.616z"/>
		<path fill="#231F20" d="M96.478,419.967v-59.571h42.138v11.183h-29.467v12.501h28.829v11.183h-28.829v24.747H96.478V419.967z"/>
		<path fill="#231F20" d="M147.8,411.548l6.973-9.907c4.21,4.379,10.715,8.121,18.922,8.121c7.058,0,10.375-3.146,10.375-6.59
			c0-10.375-34.271-3.146-34.271-25.555c0-9.907,8.589-18.113,22.578-18.113c9.481,0,17.306,2.849,23.216,8.291l-7.059,9.482
			c-4.805-4.464-11.268-6.505-17.306-6.505c-5.357,0-8.376,2.338-8.376,5.91c0,9.397,34.186,3.019,34.186,25.257
			c0,10.885-7.866,19.092-23.854,19.092C161.661,421.03,153.454,417.203,147.8,411.548z"/>
		<path fill="#231F20" d="M235.051,411.548l4.464-5.698c3.827,4.464,10.29,8.589,18.667,8.589c10.63,0,14.031-5.698,14.031-10.375
			c0-15.35-35.292-6.803-35.292-28.021c0-9.822,8.76-16.625,20.537-16.625c9.015,0,16.073,3.146,21.091,8.376l-4.465,5.443
			c-4.465-4.975-10.715-7.144-17.264-7.144c-7.058,0-12.245,3.827-12.245,9.482c0,13.394,35.291,5.698,35.291,27.936
			c0,8.589-5.91,17.519-21.982,17.519C247.637,421.03,239.941,417.118,235.051,411.548z"/>
		<path fill="#231F20" d="M295.429,419.967v-59.571h39.033v6.591h-31.593v19.219h30.998v6.591h-30.998v20.537h31.593v6.591h-39.033
			V419.967z"/>
		<path fill="#231F20" d="M393.182,419.967l-5.272-13.309h-29.636l-5.272,13.309h-8.504l24.023-59.571h9.185l23.938,59.571H393.182z
			 M373.113,368.008l-12.586,32.145h25.257L373.113,368.008z"/>
		<path fill="#231F20" d="M448.373,419.967l-15.095-23.684H421.33v23.684h-7.398v-59.571h23.939
			c10.885,0,18.751,6.974,18.751,17.943c0,10.715-7.398,16.625-15.52,17.306l16.072,24.279h-8.802V419.967z M448.884,378.34
			c0-6.803-4.933-11.353-11.948-11.353h-15.647v22.791h15.647C443.993,389.778,448.884,385.058,448.884,378.34z"/>
		<path fill="#231F20" d="M470.314,390.203c0-18.326,13.479-30.827,30.614-30.827c10.545,0,17.858,5.018,22.578,11.778l-6.165,3.486
			c-3.401-5.102-9.652-8.674-16.413-8.674c-13.054,0-22.961,9.907-22.961,24.194c0,14.117,9.907,24.194,22.961,24.194
			c6.804,0,13.054-3.657,16.413-8.674l6.25,3.401c-5.018,6.888-12.16,11.863-22.663,11.863
			C483.835,421.03,470.314,408.529,470.314,390.203z"/>
		<path fill="#231F20" d="M579.803,419.967v-27.34h-34.824v27.34h-7.398v-59.571h7.398v25.64h34.824v-25.64h7.398v59.571H579.803z"
			/>
		<path fill="#231F20" d="M7.314,463.21l1.445-1.701c1.701,1.914,4.422,3.784,8.164,3.784c5.314,0,6.846-2.976,6.846-5.187
			c0-7.654-15.647-3.657-15.647-12.799c0-4.252,3.827-6.974,8.547-6.974c3.869,0,6.846,1.361,8.844,3.657l-1.488,1.658
			c-1.871-2.254-4.55-3.274-7.483-3.274c-3.486,0-6.123,1.999-6.123,4.805c0,6.676,15.647,3.02,15.647,12.756
			c0,3.359-2.211,7.398-9.27,7.398C12.543,467.377,9.312,465.591,7.314,463.21z"/>
		<path fill="#231F20" d="M30.36,457.428c0-5.485,3.826-9.907,9.057-9.907c5.74,0,8.929,4.549,8.929,10.034v0.553H32.528
			c0.213,4.082,2.935,7.483,7.398,7.483c2.382,0,4.593-0.893,6.166-2.636l1.062,1.318c-1.871,1.955-4.252,3.061-7.398,3.061
			C34.271,467.377,30.36,463.253,30.36,457.428z M39.373,449.306c-4.465,0-6.676,3.912-6.846,7.187h13.734
			C46.219,453.303,44.136,449.306,39.373,449.306z"/>
		<path fill="#231F20" d="M65.609,466.909v-2.211c-1.701,1.828-3.784,2.679-6.421,2.679c-3.231,0-6.591-2.211-6.591-6.293
			c0-4.124,3.317-6.25,6.591-6.25c2.637,0,4.763,0.85,6.421,2.679v-3.827c0-2.807-2.254-4.337-5.061-4.337
			c-2.381,0-4.209,0.808-5.952,2.764l-1.148-1.403c1.956-2.126,4.167-3.188,7.271-3.188c3.826,0,6.888,1.828,6.888,6.08v13.309
			H65.609L65.609,466.909z M65.609,463.168V459c-1.318-1.743-3.444-2.636-5.698-2.636c-3.104,0-5.145,1.998-5.145,4.677
			c0,2.68,2.083,4.635,5.145,4.635C62.164,465.761,64.247,464.911,65.609,463.168z"/>
		<path fill="#231F20" d="M73.985,466.909V448.03h2.041v3.231c1.616-2.126,3.742-3.656,6.378-3.656v2.211
			c-0.34-0.085-0.638-0.085-1.021-0.085c-1.913,0-4.507,1.7-5.357,3.358v13.777h-2.041V466.909z"/>
		<path fill="#231F20" d="M85.295,457.428c0-5.528,3.614-9.907,9.142-9.907c3.274,0,5.146,1.275,6.676,3.188l-1.403,1.233
			c-1.36-1.871-3.104-2.637-5.145-2.637c-4.422,0-7.101,3.529-7.101,8.079s2.679,8.079,7.101,8.079c2.083,0,3.784-0.766,5.145-2.679
			l1.403,1.232c-1.53,1.956-3.401,3.231-6.676,3.231C88.909,467.377,85.295,462.955,85.295,457.428z"/>
		<path fill="#231F20" d="M118.461,466.909v-12.884c0-3.656-1.829-4.635-4.593-4.635c-2.424,0-4.932,1.531-6.123,3.231v14.287
			h-2.041v-26.107h2.041v10.035c1.361-1.658,4.082-3.316,6.804-3.316c3.827,0,5.953,1.785,5.953,6.08v13.309H118.461z"/>
		<path fill="#231F20" d="M126.284,443.48c0-0.851,0.723-1.53,1.573-1.53s1.573,0.68,1.573,1.53s-0.723,1.573-1.573,1.573
			S126.284,444.331,126.284,443.48z M126.795,466.909V448.03h2.04v18.879H126.795z"/>
		<path fill="#231F20" d="M147.927,466.909V454.11c0-3.656-1.828-4.72-4.592-4.72c-2.424,0-4.933,1.531-6.123,3.231v14.287h-2.041
			V448.03h2.041v2.849c1.36-1.658,4.082-3.316,6.803-3.316c3.827,0,5.953,1.871,5.953,6.123v13.224H147.927z"/>
		<path fill="#231F20" d="M156.346,471.714l1.19-1.658c1.658,1.956,3.444,2.679,6.293,2.679c3.402,0,6.421-1.701,6.421-5.995v-3.019
			c-1.318,1.955-3.742,3.571-6.591,3.571c-5.018,0-8.419-3.784-8.419-9.864c0-5.996,3.401-9.907,8.419-9.907
			c2.679,0,5.06,1.36,6.591,3.528v-3.061h2.083v18.751c0,5.74-3.911,7.823-8.504,7.823
			C160.598,474.562,158.557,473.968,156.346,471.714z M170.25,462.02v-9.185c-1.105-1.828-3.614-3.444-6.208-3.444
			c-4.167,0-6.591,3.487-6.591,8.079s2.424,8.036,6.591,8.036C166.636,465.464,169.145,463.848,170.25,462.02z"/>
		<path fill="#231F20" d="M189.129,463.253v-13.437h-3.146v-1.786h3.146v-5.145h2.083v5.145h3.827v1.786h-3.827v13.139
			c0,1.53,0.638,2.594,1.956,2.594c0.894,0,1.701-0.426,2.126-0.894l0.766,1.573c-0.723,0.724-1.658,1.191-3.189,1.191
			C190.32,467.377,189.129,465.847,189.129,463.253z"/>
		<path fill="#231F20" d="M212.26,466.909v-12.884c0-3.656-1.828-4.635-4.592-4.635c-2.424,0-4.933,1.531-6.123,3.231v14.287h-2.041
			v-26.107h2.041v10.035c1.36-1.658,4.082-3.316,6.803-3.316c3.827,0,5.953,1.785,5.953,6.08v13.309H212.26z"/>
		<path fill="#231F20" d="M219.573,457.428c0-5.485,3.827-9.907,9.057-9.907c5.74,0,8.93,4.549,8.93,10.034v0.553h-15.818
			c0.213,4.125,2.935,7.526,7.399,7.526c2.381,0,4.592-0.894,6.165-2.637l1.062,1.318c-1.87,1.956-4.252,3.062-7.398,3.062
			C223.486,467.377,219.573,463.253,219.573,457.428z M228.587,449.306c-4.464,0-6.675,3.912-6.846,7.187h13.734
			C235.433,453.303,233.35,449.306,228.587,449.306z"/>
		<path fill="#231F20" d="M252.994,456.875v-16.073h2.253v16.03c0,5.272,2.764,8.504,7.909,8.504c5.145,0,7.908-3.188,7.908-8.504
			v-16.03h2.254v16.073c0,6.463-3.444,10.502-10.162,10.502C256.481,467.377,252.994,463.295,252.994,456.875z"/>
		<path fill="#231F20" d="M292.495,466.909V454.11c0-3.656-1.828-4.72-4.593-4.72c-2.423,0-4.932,1.531-6.122,3.231v14.287h-1.999
			V448.03h2.041v2.849c1.36-1.658,4.082-3.316,6.804-3.316c3.826,0,5.952,1.871,5.952,6.123v13.224H292.495z"/>
		<path fill="#231F20" d="M300.319,443.48c0-0.851,0.723-1.53,1.573-1.53s1.573,0.68,1.573,1.53s-0.723,1.573-1.573,1.573
			C301.084,445.054,300.319,444.331,300.319,443.48z M300.871,466.909V448.03h2.041v18.879H300.871z"/>
		<path fill="#231F20" d="M314.35,466.909l-7.993-18.879h2.253l6.889,16.498l6.803-16.498h2.297l-7.994,18.879H314.35z"/>
		<path fill="#231F20" d="M327.021,457.428c0-5.485,3.827-9.907,9.058-9.907c5.74,0,8.929,4.549,8.929,10.034v0.553H329.19
			c0.213,4.125,2.934,7.526,7.398,7.526c2.381,0,4.592-0.894,6.165-2.637l1.063,1.318c-1.871,1.956-4.252,3.062-7.398,3.062
			C330.933,467.377,327.021,463.253,327.021,457.428z M336.035,449.306c-4.465,0-6.676,3.912-6.846,7.187h13.734
			C342.881,453.303,340.798,449.306,336.035,449.306z"/>
		<path fill="#231F20" d="M350.238,466.909V448.03h2.041v3.231c1.615-2.126,3.741-3.656,6.378-3.656v2.211
			c-0.341-0.085-0.639-0.085-1.021-0.085c-1.914,0-4.508,1.7-5.357,3.358v13.777h-2.041V466.909z"/>
		<path fill="#231F20" d="M360.994,464.358l1.233-1.488c1.233,1.53,3.444,2.764,6.123,2.764c3.188,0,5.06-1.658,5.06-3.827
			c0-5.145-11.948-2.211-11.948-9.057c0-2.892,2.467-5.229,6.719-5.229c3.231,0,5.399,1.232,6.761,2.764l-1.148,1.445
			c-1.105-1.488-3.146-2.509-5.612-2.509c-2.935,0-4.678,1.488-4.678,3.444c0,4.72,11.906,1.828,11.906,9.1
			c0,3.062-2.339,5.569-7.102,5.569C365.246,467.377,362.908,466.484,360.994,464.358z"/>
		<path fill="#231F20" d="M379.533,457.428c0-5.485,3.827-9.907,9.057-9.907c5.74,0,8.93,4.549,8.93,10.034v0.553h-15.817
			c0.212,4.125,2.934,7.526,7.398,7.526c2.381,0,4.592-0.894,6.165-2.637l1.062,1.318c-1.87,1.956-4.252,3.062-7.398,3.062
			C383.446,467.377,379.533,463.253,379.533,457.428z M388.59,449.306c-4.465,0-6.676,3.912-6.846,7.187h13.734
			C395.436,453.303,393.31,449.306,388.59,449.306z"/>
		<path fill="#231F20" d="M411.296,464.358l1.232-1.488c1.233,1.53,3.444,2.764,6.123,2.764c3.189,0,5.061-1.658,5.061-3.827
			c0-5.145-11.948-2.211-11.948-9.057c0-2.892,2.466-5.229,6.718-5.229c3.231,0,5.4,1.232,6.761,2.764l-1.148,1.445
			c-1.105-1.488-3.146-2.509-5.612-2.509c-2.934,0-4.677,1.488-4.677,3.444c0,4.72,11.905,1.828,11.905,9.1
			c0,3.062-2.339,5.569-7.101,5.569C415.505,467.377,413.167,466.484,411.296,464.358z"/>
		<path fill="#231F20" d="M430.345,443.48c0-0.851,0.723-1.53,1.573-1.53s1.573,0.68,1.573,1.53s-0.723,1.573-1.573,1.573
			S430.345,444.331,430.345,443.48z M430.855,466.909V448.03h2.041v18.879H430.855z"/>
		<path fill="#231F20" d="M451.988,466.909V454.11c0-3.656-1.828-4.72-4.592-4.72c-2.424,0-4.933,1.531-6.123,3.231v14.287h-2.041
			V448.03h2.041v2.849c1.36-1.658,4.082-3.316,6.803-3.316c3.827,0,5.953,1.871,5.953,6.123v13.224H451.988z"/>
		<path fill="#231F20" d="M459.301,457.428c0-5.528,3.614-9.907,9.142-9.907c3.274,0,5.146,1.275,6.676,3.188l-1.403,1.233
			c-1.36-1.871-3.104-2.637-5.145-2.637c-4.422,0-7.102,3.529-7.102,8.079s2.68,8.079,7.102,8.079c2.083,0,3.784-0.766,5.145-2.679
			l1.403,1.232c-1.53,1.956-3.401,3.231-6.676,3.231C462.915,467.377,459.301,462.955,459.301,457.428z"/>
		<path fill="#231F20" d="M478.648,457.428c0-5.485,3.827-9.907,9.057-9.907c5.74,0,8.93,4.549,8.93,10.034v0.553h-15.817
			c0.212,4.125,2.934,7.526,7.398,7.526c2.381,0,4.592-0.894,6.165-2.637l1.062,1.318c-1.87,1.956-4.252,3.062-7.398,3.062
			C482.56,467.377,478.648,463.253,478.648,457.428z M487.662,449.306c-4.465,0-6.676,3.912-6.846,7.187h13.733
			C494.508,453.303,492.424,449.306,487.662,449.306z"/>
		<path fill="#231F20" d="M511.346,466.909v-1.871c9.566-4.209,14.414-8.631,14.414-12.884c0-3.104-2.679-5.187-5.91-5.187
			c-3.189,0-5.996,1.36-7.441,3.401l-1.53-1.403c1.785-2.509,5.314-4.039,9.014-4.039c4.422,0,8.079,2.679,8.079,7.016
			c0,5.018-5.315,9.864-12.373,12.969h11.99v2.041h-16.242V466.909z"/>
		<path fill="#231F20" d="M543.278,467.377c-6.803,0-9.651-5.74-9.651-11.226c0-5.527,2.849-11.225,9.651-11.225
			c6.719,0,9.61,5.697,9.61,11.225C552.93,461.637,550.038,467.377,543.278,467.377z M543.278,446.968
			c-5.272,0-7.312,4.634-7.312,9.184s2.04,9.185,7.312,9.185c5.188,0,7.229-4.635,7.229-9.185
			C550.549,451.602,548.551,446.968,543.278,446.968z"/>
		<path fill="#231F20" d="M561.732,466.909v-18.454l-4.167,4.465l-1.36-1.445l5.74-6.08h2.041v21.515H561.732z"/>
		<path fill="#231F20" d="M569.47,453.855c0-6.676,2.807-13.437,9.992-13.437c3.402,0,5.485,1.361,7.059,3.316l-1.275,1.616
			c-1.275-1.701-2.892-2.892-5.74-2.892c-5.612,0-7.696,5.91-7.696,11.48c0,0.383,0,0.808,0.043,1.233
			c1.105-1.786,4.124-4.337,7.61-4.337c4.678,0,8.419,2.679,8.419,8.249c0,4.252-3.188,8.334-8.759,8.334
			C572.022,467.377,569.47,460.871,569.47,453.855z M585.543,459.086c0-4.252-2.764-6.293-6.549-6.293
			c-2.849,0-5.612,1.828-7.101,4.464c0.298,3.572,2.211,8.079,7.101,8.079C583.417,465.336,585.543,461.892,585.543,459.086z"/>
	</g>
</g>
</svg>
