<?xml version="1.0" encoding="utf-8"?>
<!-- Generator: Adobe Illustrator 16.0.0, SVG Export Plug-In . SVG Version: 6.00 Build 0)  -->
<!DOCTYPE svg PUBLIC "-//W3C//DTD SVG 1.1//EN" "http://www.w3.org/Graphics/SVG/1.1/DTD/svg11.dtd" [
	<!ENTITY ns_extend "http://ns.adobe.com/Extensibility/1.0/">
	<!ENTITY ns_ai "http://ns.adobe.com/AdobeIllustrator/10.0/">
	<!ENTITY ns_graphs "http://ns.adobe.com/Graphs/1.0/">
	<!ENTITY ns_vars "http://ns.adobe.com/Variables/1.0/">
	<!ENTITY ns_imrep "http://ns.adobe.com/ImageReplacement/1.0/">
	<!ENTITY ns_sfw "http://ns.adobe.com/SaveForWeb/1.0/">
	<!ENTITY ns_custom "http://ns.adobe.com/GenericCustomNamespace/1.0/">
	<!ENTITY ns_adobe_xpath "http://ns.adobe.com/XPath/1.0/">
]>
<svg version="1.1" id="Layer_1" xmlns:x="&ns_extend;" xmlns:i="&ns_ai;" xmlns:graph="&ns_graphs;"
	 xmlns="http://www.w3.org/2000/svg" xmlns:xlink="http://www.w3.org/1999/xlink" x="0px" y="0px" width="681.965px"
	 height="135.404px" viewBox="0 0 681.965 135.404" enable-background="new 0 0 681.965 135.404" xml:space="preserve">
<metadata>
	<sfw  xmlns="&ns_sfw;">
		<slices></slices>
		<sliceSourceBounds  width="681.965" height="135.404" x="79.332" y="-312.348" bottomLeftOrigin="true"></sliceSourceBounds>
	</sfw>
</metadata>
<g>
	<g>
		<path d="M0,71.187V1.155h14.91v70.032H0z"/>
		<path d="M34.019,71.187V1.155h32.759c15.224,0,23.519,10.29,23.519,22.574c0,12.18-8.4,22.469-23.519,22.469H48.928v24.989H34.019
			z M75.072,23.729c0-5.88-4.515-9.45-10.395-9.45H48.928v18.794h15.749C70.557,33.074,75.072,29.504,75.072,23.729z"/>
		<path d="M104.894,71.187V1.155h49.558v13.125h-34.648v14.699h33.914v13.125h-33.914v29.084H104.894z"/>
		<path d="M165.269,61.317l8.189-11.654c4.935,5.145,12.6,9.554,22.259,9.554c8.294,0,12.179-3.675,12.179-7.77
			c0-12.18-40.318-3.675-40.318-30.029c0-11.654,10.08-21.314,26.564-21.314c11.13,0,20.369,3.36,27.299,9.765l-8.294,11.129
			c-5.67-5.25-13.229-7.665-20.369-7.665c-6.3,0-9.87,2.73-9.87,6.93c0,11.024,40.213,3.57,40.213,29.714
			c0,12.81-9.24,22.469-28.034,22.469C181.543,72.447,171.884,67.932,165.269,61.317z"/>
		<path d="M267.852,61.317l5.25-6.72c4.515,5.25,12.074,10.08,21.944,10.08c12.495,0,16.484-6.72,16.484-12.18
			c0-18.059-41.473-7.979-41.473-32.968C270.057,7.979,280.346,0,294.206,0c10.604,0,18.899,3.675,24.779,9.87l-5.25,6.405
			c-5.25-5.88-12.6-8.4-20.264-8.4c-8.295,0-14.384,4.515-14.384,11.129c0,15.75,41.473,6.72,41.473,32.864
			c0,10.08-6.93,20.579-25.829,20.579C282.656,72.447,273.626,67.828,267.852,61.317z"/>
		<path d="M338.831,71.187V1.155h45.883v7.77h-37.169v22.574h36.434v7.77h-36.434v24.149h37.169v7.77H338.831z"/>
		<path d="M453.803,71.187l-6.195-15.645H412.75l-6.194,15.645h-9.975l28.243-70.032h10.814l28.14,70.032H453.803z M430.179,10.08
			l-14.805,37.798h29.714L430.179,10.08z"/>
		<path d="M518.692,71.187l-17.744-27.824h-14.069v27.824h-8.715V1.155h28.139c12.81,0,22.05,8.19,22.05,21.104
			c0,12.6-8.715,19.529-18.27,20.37l18.899,28.559H518.692z M519.322,22.259c0-7.979-5.774-13.334-14.069-13.334h-18.374v26.774
			h18.374C513.547,35.698,519.322,30.134,519.322,22.259z"/>
		<path d="M544.523,36.224C544.523,14.699,560.377,0,580.537,0c12.39,0,20.999,5.88,26.564,13.859l-7.245,4.095
			c-3.99-5.985-11.34-10.185-19.319-10.185c-15.329,0-26.983,11.655-26.983,28.454c0,16.589,11.654,28.454,26.983,28.454
			c7.979,0,15.329-4.305,19.319-10.185l7.35,3.99c-5.88,8.084-14.279,13.964-26.669,13.964
			C560.377,72.447,544.523,57.748,544.523,36.224z"/>
		<path d="M673.25,71.187V39.058h-40.948v32.129h-8.715V1.155h8.715v30.134h40.948V1.155h8.715v70.032H673.25z"/>
		<path d="M1.934,122.063l1.702-1.979c1.979,2.254,5.199,4.463,9.615,4.463c6.257,0,8.051-3.497,8.051-6.119
			c0-9.017-18.402-4.324-18.402-15.044c0-5.015,4.508-8.188,10.075-8.188c4.554,0,8.051,1.61,10.397,4.324l-1.748,1.933
			c-2.208-2.669-5.337-3.864-8.787-3.864c-4.095,0-7.177,2.346-7.177,5.658c0,7.867,18.402,3.542,18.402,14.998
			c0,3.956-2.622,8.694-10.903,8.694C8.098,126.939,4.28,124.869,1.934,122.063z"/>
		<path d="M29.027,115.254c0-6.441,4.508-11.64,10.673-11.64c6.763,0,10.489,5.337,10.489,11.777v0.644H31.604
			c0.23,4.831,3.45,8.833,8.695,8.833c2.807,0,5.383-1.058,7.269-3.082l1.242,1.564c-2.208,2.3-5.015,3.588-8.695,3.588
			C33.628,126.939,29.027,122.109,29.027,115.254z M39.654,105.685c-5.245,0-7.867,4.601-8.051,8.465h16.148
			C47.706,110.377,45.221,105.685,39.654,105.685z"/>
		<path d="M70.475,126.387v-2.622c-1.979,2.162-4.462,3.174-7.545,3.174c-3.818,0-7.775-2.622-7.775-7.406
			c0-4.831,3.911-7.361,7.775-7.361c3.083,0,5.613,1.013,7.545,3.175v-4.509c0-3.312-2.668-5.106-5.935-5.106
			c-2.807,0-4.969,0.966-6.993,3.267l-1.334-1.656c2.3-2.484,4.876-3.727,8.557-3.727c4.508,0,8.097,2.162,8.097,7.131v15.642
			H70.475z M70.475,122.017v-4.877c-1.564-2.07-4.048-3.082-6.717-3.082c-3.634,0-6.073,2.346-6.073,5.521
			c0,3.128,2.438,5.475,6.073,5.475C66.426,125.053,68.91,124.041,70.475,122.017z"/>
		<path d="M80.317,126.387v-22.221h2.392v3.818c1.886-2.484,4.417-4.278,7.499-4.278v2.622c-0.414-0.092-0.736-0.092-1.196-0.092
			c-2.254,0-5.291,2.024-6.303,3.956v16.194H80.317z"/>
		<path d="M93.656,115.254c0-6.487,4.232-11.64,10.765-11.64c3.864,0,6.073,1.518,7.867,3.772l-1.656,1.472
			c-1.61-2.208-3.635-3.082-6.073-3.082c-5.199,0-8.373,4.141-8.373,9.478c0,5.336,3.174,9.522,8.373,9.522
			c2.438,0,4.462-0.92,6.073-3.128l1.656,1.472c-1.794,2.301-4.002,3.818-7.867,3.818C97.889,126.939,93.656,121.741,93.656,115.254
			z"/>
		<path d="M132.62,126.387v-15.136c0-4.278-2.162-5.475-5.383-5.475c-2.852,0-5.796,1.794-7.223,3.818v16.792h-2.392V95.702h2.392
			v11.823c1.61-1.932,4.785-3.91,8.005-3.91c4.509,0,6.993,2.116,6.993,7.131v15.642H132.62z"/>
		<path d="M141.818,98.83c0-1.012,0.874-1.794,1.84-1.794c1.012,0,1.84,0.782,1.84,1.794c0,1.013-0.828,1.841-1.84,1.841
			C142.692,100.67,141.818,99.842,141.818,98.83z M142.462,126.387v-22.221h2.392v22.221H142.462z"/>
		<path d="M167.303,126.387v-15.044c0-4.278-2.162-5.566-5.383-5.566c-2.852,0-5.796,1.794-7.223,3.818v16.792h-2.392v-22.221h2.392
			v3.358c1.61-1.932,4.785-3.91,8.005-3.91c4.509,0,6.993,2.208,6.993,7.223v15.55H167.303z"/>
		<path d="M177.191,132.045l1.38-1.932c1.933,2.3,4.049,3.128,7.407,3.128c4.002,0,7.545-2.024,7.545-7.038v-3.543
			c-1.564,2.301-4.417,4.187-7.729,4.187c-5.889,0-9.891-4.463-9.891-11.593c0-7.039,4.002-11.64,9.891-11.64
			c3.174,0,5.935,1.61,7.729,4.141v-3.589h2.438v22.037c0,6.763-4.601,9.2-9.983,9.2
			C182.206,135.404,179.813,134.714,177.191,132.045z M193.523,120.636v-10.811c-1.289-2.163-4.233-4.049-7.315-4.049
			c-4.923,0-7.775,4.095-7.775,9.478c0,5.382,2.852,9.431,7.775,9.431C189.29,124.685,192.234,122.798,193.523,120.636z"/>
		<path d="M215.738,122.109v-15.826h-3.681v-2.116h3.681v-6.072h2.438v6.072h4.509v2.116h-4.509v15.458
			c0,1.794,0.736,3.036,2.3,3.036c1.058,0,1.979-0.506,2.484-1.058l0.92,1.84c-0.875,0.828-1.933,1.38-3.772,1.38
			C217.165,126.939,215.738,125.145,215.738,122.109z"/>
		<path d="M242.926,126.387v-15.136c0-4.278-2.162-5.475-5.383-5.475c-2.852,0-5.796,1.794-7.223,3.818v16.792h-2.392V95.702h2.392
			v11.823c1.61-1.932,4.785-3.91,8.005-3.91c4.509,0,6.993,2.116,6.993,7.131v15.642H242.926z"/>
		<path d="M251.526,115.254c0-6.441,4.508-11.64,10.673-11.64c6.763,0,10.489,5.337,10.489,11.777v0.644h-18.586
			c0.23,4.831,3.45,8.833,8.695,8.833c2.807,0,5.383-1.058,7.269-3.082l1.242,1.564c-2.208,2.3-5.015,3.588-8.695,3.588
			C256.126,126.939,251.526,122.109,251.526,115.254z M262.153,105.685c-5.245,0-7.867,4.601-8.051,8.465h16.148
			C270.204,110.377,267.72,105.685,262.153,105.685z"/>
		<path d="M290.855,114.61V95.702h2.668v18.862c0,6.211,3.266,9.983,9.293,9.983s9.293-3.772,9.293-9.983V95.702h2.668v18.908
			c0,7.591-4.048,12.329-11.961,12.329C294.95,126.939,290.855,122.155,290.855,114.61z"/>
		<path d="M337.316,126.387v-15.044c0-4.278-2.162-5.566-5.383-5.566c-2.852,0-5.796,1.794-7.223,3.818v16.792h-2.392v-22.221h2.392
			v3.358c1.61-1.932,4.785-3.91,8.005-3.91c4.509,0,6.993,2.208,6.993,7.223v15.55H337.316z"/>
		<path d="M346.514,98.83c0-1.012,0.875-1.794,1.84-1.794c1.013,0,1.841,0.782,1.841,1.794c0,1.013-0.828,1.841-1.841,1.841
			C347.389,100.67,346.514,99.842,346.514,98.83z M347.159,126.387v-22.221h2.393v22.221H347.159z"/>
		<path d="M362.983,126.387l-9.385-22.221h2.668l8.097,19.414l8.005-19.414h2.715l-9.385,22.221H362.983z"/>
		<path d="M377.885,115.254c0-6.441,4.509-11.64,10.673-11.64c6.763,0,10.489,5.337,10.489,11.777v0.644h-18.586
			c0.23,4.831,3.45,8.833,8.695,8.833c2.806,0,5.383-1.058,7.269-3.082l1.242,1.564c-2.208,2.3-5.015,3.588-8.695,3.588
			C382.486,126.939,377.885,122.109,377.885,115.254z M388.512,105.685c-5.244,0-7.867,4.601-8.051,8.465h16.147
			C396.563,110.377,394.079,105.685,388.512,105.685z"/>
		<path d="M405.208,126.387v-22.221h2.393v3.818c1.886-2.484,4.416-4.278,7.498-4.278v2.622c-0.414-0.092-0.735-0.092-1.195-0.092
			c-2.255,0-5.291,2.024-6.303,3.956v16.194H405.208z"/>
		<path d="M417.857,123.397l1.427-1.748c1.426,1.794,4.048,3.267,7.177,3.267c3.727,0,5.935-1.933,5.935-4.509
			c0-6.073-14.032-2.622-14.032-10.627c0-3.405,2.898-6.165,7.913-6.165c3.818,0,6.349,1.472,7.959,3.267l-1.334,1.702
			c-1.288-1.748-3.681-2.944-6.625-2.944c-3.45,0-5.521,1.748-5.521,4.048c0,5.567,13.985,2.162,13.985,10.72
			c0,3.588-2.76,6.532-8.326,6.532C422.826,126.939,420.066,125.881,417.857,123.397z"/>
		<path d="M439.662,115.254c0-6.441,4.509-11.64,10.673-11.64c6.763,0,10.489,5.337,10.489,11.777v0.644h-18.586
			c0.23,4.831,3.45,8.833,8.695,8.833c2.806,0,5.382-1.058,7.269-3.082l1.242,1.564c-2.208,2.3-5.015,3.588-8.695,3.588
			C444.262,126.939,439.662,122.109,439.662,115.254z M450.289,105.685c-5.244,0-7.867,4.601-8.051,8.465h16.147
			C458.339,110.377,455.855,105.685,450.289,105.685z"/>
		<path d="M476.965,123.397l1.427-1.748c1.426,1.794,4.048,3.267,7.177,3.267c3.727,0,5.935-1.933,5.935-4.509
			c0-6.073-14.032-2.622-14.032-10.627c0-3.405,2.898-6.165,7.913-6.165c3.818,0,6.349,1.472,7.959,3.267l-1.334,1.702
			c-1.288-1.748-3.681-2.944-6.625-2.944c-3.45,0-5.521,1.748-5.521,4.048c0,5.567,13.985,2.162,13.985,10.72
			c0,3.588-2.76,6.532-8.326,6.532C481.934,126.939,479.174,125.881,476.965,123.397z"/>
		<path d="M499.368,98.83c0-1.012,0.874-1.794,1.841-1.794c1.012,0,1.84,0.782,1.84,1.794c0,1.013-0.828,1.841-1.84,1.841
			C500.242,100.67,499.368,99.842,499.368,98.83z M500.012,126.387v-22.221h2.393v22.221H500.012z"/>
		<path d="M524.854,126.387v-15.044c0-4.278-2.163-5.566-5.383-5.566c-2.853,0-5.797,1.794-7.223,3.818v16.792h-2.393v-22.221h2.393
			v3.358c1.609-1.932,4.784-3.91,8.005-3.91c4.508,0,6.992,2.208,6.992,7.223v15.55H524.854z"/>
		<path d="M533.454,115.254c0-6.487,4.232-11.64,10.766-11.64c3.864,0,6.072,1.518,7.866,3.772l-1.656,1.472
			c-1.61-2.208-3.634-3.082-6.072-3.082c-5.199,0-8.373,4.141-8.373,9.478c0,5.336,3.174,9.522,8.373,9.522
			c2.438,0,4.462-0.92,6.072-3.128l1.656,1.472c-1.794,2.301-4.002,3.818-7.866,3.818
			C537.686,126.939,533.454,121.741,533.454,115.254z"/>
		<path d="M556.177,115.254c0-6.441,4.509-11.64,10.673-11.64c6.763,0,10.489,5.337,10.489,11.777v0.644h-18.586
			c0.23,4.831,3.45,8.833,8.695,8.833c2.806,0,5.382-1.058,7.269-3.082l1.242,1.564c-2.208,2.3-5.015,3.588-8.695,3.588
			C560.778,126.939,556.177,122.109,556.177,115.254z M566.804,105.685c-5.244,0-7.867,4.601-8.051,8.465h16.147
			C574.855,110.377,572.371,105.685,566.804,105.685z"/>
		<path d="M594.631,126.387v-2.208c11.271-4.969,16.93-10.167,16.93-15.136c0-3.635-3.128-6.119-6.946-6.119
			c-3.772,0-7.039,1.61-8.741,4.003l-1.794-1.656c2.116-2.944,6.257-4.738,10.581-4.738c5.198,0,9.522,3.174,9.522,8.234
			c0,5.889-6.256,11.594-14.537,15.228h14.077v2.393H594.631z"/>
		<path d="M632.213,126.939c-8.005,0-11.363-6.763-11.363-13.203c0-6.486,3.358-13.203,11.363-13.203
			c7.913,0,11.317,6.717,11.317,13.203C643.531,120.176,640.126,126.939,632.213,126.939z M632.213,102.924
			c-6.21,0-8.603,5.475-8.603,10.812s2.393,10.812,8.603,10.812c6.119,0,8.512-5.475,8.512-10.812S638.378,102.924,632.213,102.924z
			"/>
		<path d="M653.878,126.387v-21.715l-4.922,5.245l-1.61-1.702l6.763-7.131h2.393v25.303H653.878z"/>
		<path d="M665.93,131.77l12.882-28.293h-16.976v-2.393h20.104v1.84l-13.111,28.846H665.93z"/>
	</g>
</g>
</svg>
